<mxfile host="65bd71144e">
    <diagram id="vcHb42nia1ceKIy2T0bB" name="Page-1">
        <mxGraphModel dx="1211" dy="471" grid="1" gridSize="10" guides="1" tooltips="1" connect="1" arrows="1" fold="1" page="1" pageScale="1" pageWidth="850" pageHeight="1100" math="0" shadow="0">
            <root>
                <mxCell id="0"/>
                <mxCell id="1" parent="0"/>
                <mxCell id="2" value="A" style="ellipse;whiteSpace=wrap;html=1;aspect=fixed;fontFamily=Helvetica;" vertex="1" parent="1">
                    <mxGeometry x="250" y="200" width="50" height="50" as="geometry"/>
                </mxCell>
                <mxCell id="5" value="B" style="ellipse;whiteSpace=wrap;html=1;aspect=fixed;fontFamily=Helvetica;" vertex="1" parent="1">
                    <mxGeometry x="325" y="120" width="50" height="50" as="geometry"/>
                </mxCell>
                <mxCell id="6" value="C" style="ellipse;whiteSpace=wrap;html=1;aspect=fixed;fontFamily=Helvetica;" vertex="1" parent="1">
                    <mxGeometry x="400" y="40" width="50" height="50" as="geometry"/>
                </mxCell>
                <mxCell id="8" value="" style="shape=link;html=1;fontFamily=Helvetica;exitX=1;exitY=0;exitDx=0;exitDy=0;entryX=0;entryY=1;entryDx=0;entryDy=0;" edge="1" parent="1" source="2" target="5">
                    <mxGeometry width="100" relative="1" as="geometry">
                        <mxPoint x="370" y="400" as="sourcePoint"/>
                        <mxPoint x="470" y="400" as="targetPoint"/>
                    </mxGeometry>
                </mxCell>
                <mxCell id="9" value="" style="shape=link;html=1;fontFamily=Helvetica;exitX=1;exitY=0;exitDx=0;exitDy=0;entryX=0;entryY=1;entryDx=0;entryDy=0;" edge="1" parent="1" source="5" target="6">
                    <mxGeometry width="100" relative="1" as="geometry">
                        <mxPoint x="312.6776695296637" y="207.32233047033628" as="sourcePoint"/>
                        <mxPoint x="342.3223304703363" y="172.67766952966372" as="targetPoint"/>
                    </mxGeometry>
                </mxCell>
            </root>
        </mxGraphModel>
    </diagram>
</mxfile>